<?xml version="1.0" encoding="UTF-8"?>
<svg xmlns="http://www.w3.org/2000/svg" width="210mm" height="297mm" viewBox="0 0 2480 3508" role="img">
<rect width="100%" height="100%" fill="#FFFDF8"/>
<g transform="scale(2.42187500 2.28385417)">
<rect width="100%" height="184" fill="#1E3A5F"/>
<text x="72" y="58" font-family="Apple SD Gothic Neo, Noto Sans KR, sans-serif" font-size="22" font-weight="700" fill="#FFFFFF" text-anchor="start" >초등 수학 한 장</text>
<text x="72" y="112" font-family="Apple SD Gothic Neo, Noto Sans KR, sans-serif" font-size="43" font-weight="800" fill="#FFFFFF" text-anchor="start" >분수의 덧셈과 뺄셈</text>
<text x="72" y="152" font-family="Apple SD Gothic Neo, Noto Sans KR, sans-serif" font-size="23" font-weight="400" fill="#FFFFFF" text-anchor="start" >3-4학년군 · 문제</text>
<text x="952" y="152" font-family="Apple SD Gothic Neo, Noto Sans KR, sans-serif" font-size="22" font-weight="700" fill="#FFFFFF" text-anchor="end" >2</text>
<rect x="72" y="213" width="880" height="391" rx="24" fill="#FFFFFF" stroke="#CFD7DE" stroke-width="2"/>
<rect x="72" y="213" width="14" height="391" rx="7" fill="#DDF3E4"/>
<rect x="102" y="237" width="128" height="36" rx="18" fill="#DDF3E4"/>
<text x="166" y="262" font-family="Apple SD Gothic Neo, Noto Sans KR, sans-serif" font-size="17" font-weight="700" fill="#18202B" text-anchor="middle" >기초 다지기</text>
<text x="102" y="319" font-family="Apple SD Gothic Neo, Noto Sans KR, sans-serif" font-size="32" font-weight="800" fill="#1E3A5F" text-anchor="start" >1.</text>
<text x="156" y="317" font-family="Apple SD Gothic Neo, Noto Sans KR, sans-serif" font-size="25" font-weight="650" fill="#18202B"><tspan x="156" dy="0">2/7+3/7을 계산하세요.</tspan></text>
<g id="diagram-q1" data-role="math-diagram" data-diagram-kind="fraction-bar" data-geometry="fraction-partition"><rect x="724.0" y="358.0" width="28.571428571428573" height="28.571428571428573" fill="#FFFFFF" stroke="#1E3A5F" stroke-width="2"/><rect x="752.5714285714286" y="358.0" width="28.571428571428573" height="28.571428571428573" fill="#FFFFFF" stroke="#1E3A5F" stroke-width="2"/><rect x="781.1428571428571" y="358.0" width="28.571428571428573" height="28.571428571428573" fill="#FFFFFF" stroke="#1E3A5F" stroke-width="2"/><rect x="809.7142857142858" y="358.0" width="28.571428571428573" height="28.571428571428573" fill="#FFFFFF" stroke="#1E3A5F" stroke-width="2"/><rect x="838.2857142857143" y="358.0" width="28.571428571428573" height="28.571428571428573" fill="#FFFFFF" stroke="#1E3A5F" stroke-width="2"/><rect x="866.8571428571429" y="358.0" width="28.571428571428573" height="28.571428571428573" fill="#FFFFFF" stroke="#1E3A5F" stroke-width="2"/><rect x="895.4285714285714" y="358.0" width="28.571428571428573" height="28.571428571428573" fill="#FFFFFF" stroke="#1E3A5F" stroke-width="2"/></g>
<line x1="106" y1="483" x2="690" y2="483" stroke="#CFD7DE" stroke-width="2"/>
<line x1="106" y1="525" x2="690" y2="525" stroke="#CFD7DE" stroke-width="2"/>
<line x1="106" y1="567" x2="690" y2="567" stroke="#CFD7DE" stroke-width="2"/>
<text x="106" y="580" font-family="Apple SD Gothic Neo, Noto Sans KR, sans-serif" font-size="16" font-weight="600" fill="#51606F" text-anchor="start" >[4수01-15]</text>
<rect x="72" y="626" width="880" height="391" rx="24" fill="#FFFFFF" stroke="#CFD7DE" stroke-width="2"/>
<rect x="72" y="626" width="14" height="391" rx="7" fill="#DDF3E4"/>
<rect x="102" y="650" width="128" height="36" rx="18" fill="#DDF3E4"/>
<text x="166" y="675" font-family="Apple SD Gothic Neo, Noto Sans KR, sans-serif" font-size="17" font-weight="700" fill="#18202B" text-anchor="middle" >기초 다지기</text>
<text x="102" y="732" font-family="Apple SD Gothic Neo, Noto Sans KR, sans-serif" font-size="32" font-weight="800" fill="#1E3A5F" text-anchor="start" >2.</text>
<text x="156" y="730" font-family="Apple SD Gothic Neo, Noto Sans KR, sans-serif" font-size="25" font-weight="650" fill="#18202B"><tspan x="156" dy="0">6/9-2/9를 계산하세요.</tspan></text>
<g id="diagram-q2" data-role="math-diagram" data-diagram-kind="fraction-bar" data-geometry="fraction-partition"><rect x="724.0" y="771.0" width="22.22222222222222" height="22.22222222222222" fill="#FFFFFF" stroke="#1E3A5F" stroke-width="2"/><rect x="746.2222222222222" y="771.0" width="22.22222222222222" height="22.22222222222222" fill="#FFFFFF" stroke="#1E3A5F" stroke-width="2"/><rect x="768.4444444444445" y="771.0" width="22.22222222222222" height="22.22222222222222" fill="#FFFFFF" stroke="#1E3A5F" stroke-width="2"/><rect x="790.6666666666666" y="771.0" width="22.22222222222222" height="22.22222222222222" fill="#FFFFFF" stroke="#1E3A5F" stroke-width="2"/><rect x="812.8888888888889" y="771.0" width="22.22222222222222" height="22.22222222222222" fill="#FFFFFF" stroke="#1E3A5F" stroke-width="2"/><rect x="835.1111111111111" y="771.0" width="22.22222222222222" height="22.22222222222222" fill="#FFFFFF" stroke="#1E3A5F" stroke-width="2"/><rect x="857.3333333333333" y="771.0" width="22.22222222222222" height="22.22222222222222" fill="#FFFFFF" stroke="#1E3A5F" stroke-width="2"/><rect x="879.5555555555555" y="771.0" width="22.22222222222222" height="22.22222222222222" fill="#FFFFFF" stroke="#1E3A5F" stroke-width="2"/><rect x="901.7777777777778" y="771.0" width="22.22222222222222" height="22.22222222222222" fill="#FFFFFF" stroke="#1E3A5F" stroke-width="2"/></g>
<line x1="106" y1="896" x2="690" y2="896" stroke="#CFD7DE" stroke-width="2"/>
<line x1="106" y1="938" x2="690" y2="938" stroke="#CFD7DE" stroke-width="2"/>
<line x1="106" y1="980" x2="690" y2="980" stroke="#CFD7DE" stroke-width="2"/>
<text x="106" y="993" font-family="Apple SD Gothic Neo, Noto Sans KR, sans-serif" font-size="16" font-weight="600" fill="#51606F" text-anchor="start" >[4수01-15]</text>
<rect x="72" y="1039" width="880" height="391" rx="24" fill="#FFFFFF" stroke="#CFD7DE" stroke-width="2"/>
<rect x="72" y="1039" width="14" height="391" rx="7" fill="#DDEBFA"/>
<rect x="102" y="1063" width="128" height="36" rx="18" fill="#DDEBFA"/>
<text x="166" y="1088" font-family="Apple SD Gothic Neo, Noto Sans KR, sans-serif" font-size="17" font-weight="700" fill="#18202B" text-anchor="middle" >기본 완성</text>
<text x="102" y="1145" font-family="Apple SD Gothic Neo, Noto Sans KR, sans-serif" font-size="32" font-weight="800" fill="#1E3A5F" text-anchor="start" >3.</text>
<text x="156" y="1143" font-family="Apple SD Gothic Neo, Noto Sans KR, sans-serif" font-size="25" font-weight="650" fill="#18202B"><tspan x="156" dy="0">1과 2/5+2와 1/5을 계산하세요.</tspan></text>
<g id="diagram-q3" data-role="math-diagram" data-diagram-kind="fraction-bar" data-geometry="fraction-partition"><rect x="724.0" y="1184.0" width="40.0" height="40.0" fill="#FFFFFF" stroke="#1E3A5F" stroke-width="2"/><rect x="764.0" y="1184.0" width="40.0" height="40.0" fill="#FFFFFF" stroke="#1E3A5F" stroke-width="2"/><rect x="804.0" y="1184.0" width="40.0" height="40.0" fill="#FFFFFF" stroke="#1E3A5F" stroke-width="2"/><rect x="844.0" y="1184.0" width="40.0" height="40.0" fill="#FFFFFF" stroke="#1E3A5F" stroke-width="2"/><rect x="884.0" y="1184.0" width="40.0" height="40.0" fill="#FFFFFF" stroke="#1E3A5F" stroke-width="2"/></g>
<line x1="106" y1="1309" x2="690" y2="1309" stroke="#CFD7DE" stroke-width="2"/>
<line x1="106" y1="1351" x2="690" y2="1351" stroke="#CFD7DE" stroke-width="2"/>
<line x1="106" y1="1393" x2="690" y2="1393" stroke="#CFD7DE" stroke-width="2"/>
<text x="106" y="1406" font-family="Apple SD Gothic Neo, Noto Sans KR, sans-serif" font-size="16" font-weight="600" fill="#51606F" text-anchor="start" >[4수01-15]</text>
<line x1="72" y1="1460" x2="952" y2="1460" stroke="#CFD7DE" stroke-width="2"/>
<text x="72" y="1494" font-family="Apple SD Gothic Neo, Noto Sans KR, sans-serif" font-size="16" font-weight="600" fill="#51606F" text-anchor="start" >Taehyeong Lim · CC BY-NC-SA 4.0</text>
<text x="952" y="1474" font-family="Apple SD Gothic Neo, Noto Sans KR, sans-serif" font-size="15" font-weight="400" fill="#51606F" text-anchor="end" >이미지 제작: Gongnyang Prompt Kit</text>
<text x="952" y="1501" font-family="Apple SD Gothic Neo, Noto Sans KR, sans-serif" font-size="15" font-weight="400" fill="#51606F" text-anchor="end" >문항·해설은 학습지 JSON에서 결정론적으로 생성됨</text>
</g></svg>